<svg width="24" height="24" viewBox="0 0 24 24" fill="none" xmlns="http://www.w3.org/2000/svg">
<path d="M10.9893 0.0538769C9.16169 0.359333 7.71207 1.10485 6.40741 2.41469C5.20112 3.62099 4.48666 4.93082 4.11908 6.62377C4.02589 7.06902 4.00518 7.31752 4 8.1873C4 9.36252 4.09319 9.97344 4.42453 10.926C4.88013 12.2359 5.4548 13.116 6.59897 14.2602C7.05974 14.7261 7.51016 15.2024 7.59299 15.3215C8.00717 15.9272 8.24015 16.6158 8.30227 17.4028C8.32298 17.6564 8.36958 17.9567 8.40582 18.0706C8.45759 18.2156 8.4783 18.5832 8.4783 19.4167C8.4783 20.0431 8.50418 20.6489 8.53007 20.7524C8.61291 21.0372 8.89248 21.4151 9.16169 21.5963L9.39467 21.7516L9.42055 22.2538C9.44126 22.6835 9.46715 22.8078 9.61211 23.0925C9.80884 23.4912 10.0884 23.7552 10.4922 23.9053C10.7563 24.0037 10.865 24.0089 12.1489 23.9934C13.376 23.9778 13.5468 23.9675 13.7073 23.8795C14.0749 23.6827 14.3234 23.4342 14.4891 23.0925C14.634 22.8078 14.6599 22.6835 14.6806 22.2538L14.7065 21.7516L14.9395 21.5963C15.2087 21.4151 15.4883 21.0372 15.5711 20.7524C15.597 20.6489 15.6229 20.0431 15.6229 19.4167C15.6229 18.5832 15.6436 18.2156 15.6953 18.0706C15.7316 17.9567 15.7782 17.6564 15.7989 17.4028C15.861 16.6158 16.094 15.9272 16.5082 15.3267C16.5858 15.2128 17.0311 14.7313 17.5022 14.2654C18.4186 13.3438 18.7913 12.852 19.2573 11.9253C20.1271 10.1909 20.3548 8.10446 19.8837 6.22513C19.1227 3.18092 16.6428 0.804575 13.5261 0.136713C12.8634 -0.00307274 11.5898 -0.0444908 10.9893 0.0538769ZM12.9255 1.15145C14.4114 1.36889 15.8144 2.08335 16.9223 3.1861C19.0139 5.2777 19.599 8.3219 18.4393 11.071C18.051 11.9874 17.6006 12.6138 16.6376 13.5716C16.1458 14.0583 15.7005 14.5553 15.5556 14.7727C15.0534 15.5234 14.779 16.3259 14.7117 17.1957C14.6754 17.7082 14.6133 17.8791 14.4269 17.9722C14.2095 18.0861 9.89168 18.0861 9.67424 17.9722C9.48786 17.8791 9.42573 17.7082 9.38949 17.1957C9.32219 16.3259 9.04779 15.5286 8.5456 14.7727C8.40064 14.5501 7.96575 14.0686 7.46356 13.5716C6.52648 12.6397 6.0916 12.0495 5.70848 11.1797C5.25289 10.1443 5.09239 9.35217 5.09239 8.1873C5.09757 7.2554 5.19594 6.65484 5.48069 5.84719C6.08642 4.13871 7.41179 2.63731 9.02708 1.82966C10.3266 1.18251 11.6209 0.959892 12.9255 1.15145ZM14.5356 19.7739C14.5356 20.4055 14.4994 20.5453 14.3079 20.7006C14.2095 20.7835 14.0076 20.7938 12.0506 20.7938C10.0936 20.7938 9.89168 20.7835 9.79331 20.7006C9.60176 20.5453 9.56552 20.4055 9.56552 19.7739V19.163H12.0506H14.5356V19.7739ZM13.552 22.2538C13.552 22.6007 13.4795 22.7456 13.2569 22.8595C13.1016 22.9372 10.9996 22.9372 10.8443 22.8595C10.6217 22.7456 10.5492 22.6007 10.5492 22.2538V21.9328H12.0506H13.552V22.2538Z" fill="#89AC8C"/>
<path d="M11.3791 2.10919C10.7992 2.17649 10.266 2.34216 9.63954 2.64762C8.97168 2.96861 8.53679 3.2896 8.0346 3.81767C7.59454 4.28362 7.34603 4.65121 7.04575 5.28283C6.77136 5.86268 6.62639 6.39593 6.55391 7.10521C6.50214 7.5608 6.50732 7.65399 6.5798 7.80931C6.67817 8.0164 6.85419 8.12512 7.07681 8.12512C7.4444 8.12512 7.64631 7.85591 7.64631 7.34854C7.65149 6.20437 8.35559 4.85829 9.34961 4.10242C9.98641 3.62094 10.8251 3.27406 11.5033 3.21711C12.2074 3.15499 12.2955 3.13946 12.4249 3.00485C12.8028 2.62691 12.4974 2.03671 11.933 2.05742C11.8399 2.06259 11.5914 2.0833 11.3791 2.10919Z" fill="#89AC8C"/>
</svg>
