<svg width="24" height="24" viewBox="0 0 24 24" fill="none" xmlns="http://www.w3.org/2000/svg">
<path d="M11.3846 0.030407C10.0564 0.260229 8.9641 1.13262 8.52308 2.31926L8.38462 2.68509L8.35897 8.41191L8.33333 14.1387L8.05128 14.3592C6.76923 15.3582 6 16.9013 6 18.4678C6 20.5691 7.21026 22.4077 9.22051 23.3598C11.0256 24.2134 12.9744 24.2134 14.7795 23.3598C16.7897 22.4077 18 20.5691 18 18.4678C18 16.9013 17.2308 15.3582 15.9487 14.3592L15.6667 14.1387L15.641 8.41191L15.6154 2.68509L15.4769 2.31926C15.0923 1.28271 14.2205 0.485361 13.1026 0.152353C12.6513 0.0163364 11.8154 -0.0399475 11.3846 0.030407ZM12.5846 1.51253C13.1333 1.66731 13.6359 2.06598 13.8872 2.55846L14.0256 2.8258L14.0513 8.75899C14.0821 15.5458 14.0205 14.8188 14.5949 15.2034C15.4051 15.7522 16.041 16.5917 16.2821 17.4313C16.7949 19.2464 15.9744 21.0569 14.2051 22.0137C13.9949 22.1309 13.5897 22.2904 13.3077 22.3748C12.8205 22.5155 12.7538 22.5249 12 22.5249C11.2462 22.5249 11.1795 22.5155 10.6923 22.3748C9.55385 22.0371 8.62051 21.3336 8.08718 20.3908C7.79487 19.889 7.66154 19.4903 7.59487 18.9275C7.42051 17.4969 8.11282 16.0758 9.40513 15.2034C9.97949 14.8188 9.91795 15.5458 9.94872 8.75899L9.97436 2.8258L10.1128 2.55846C10.2615 2.26297 10.6308 1.87368 10.9128 1.71421C11.3744 1.45625 12.0718 1.37182 12.5846 1.51253Z" fill="#AC898B"/>
<path d="M11.6442 6.07624C11.5468 6.11846 11.4134 6.22633 11.3519 6.31545L11.2339 6.47492V11.334V16.1931L10.8647 16.3573C9.86984 16.7935 9.26471 17.8254 9.42368 18.8197C9.62881 20.1189 10.9621 21.0429 12.3724 20.86C13.3929 20.7239 14.2698 19.9923 14.5416 19.0448C14.8339 18.013 14.2186 16.8263 13.1416 16.3573L12.7724 16.1931V11.334V6.47492L12.6545 6.31545C12.516 6.12315 12.2493 5.99182 12.0032 5.99182C11.9057 5.99182 11.7416 6.02934 11.6442 6.07624Z" fill="#AC898B"/>
</svg>
