<svg width="24" height="24" viewBox="0 0 24 24" fill="none" xmlns="http://www.w3.org/2000/svg">
<path d="M7.57862 5.81054C2.90494 12.6316 2.14704 15.8526 4.35757 19.4526C8.14704 25.3895 15.8523 25.3895 19.6418 19.4526C21.8523 15.8526 21.0944 12.6316 16.4207 5.81054C14.2102 2.65265 12.1891 1.33514e-05 11.9997 1.33514e-05C11.8102 1.33514e-05 9.78915 2.65265 7.57862 5.81054ZM14.8418 5.49475C18.5681 10.8 19.5155 12.6947 19.5786 15.0316C19.5786 19.3895 16.2944 22.7369 11.9997 22.7369C5.99968 22.7369 2.52599 16.4211 5.55757 10.9895C7.0102 8.40001 11.6207 1.95791 11.9997 1.95791C12.1891 1.95791 13.4523 3.53686 14.8418 5.49475Z" fill="#4375AB"/>
<path d="M5.68359 15.4737C5.68359 17.2421 7.19938 19.7053 8.90465 20.5895C10.9889 21.6 12.631 21.7263 12.631 20.8421C12.631 20.4632 12.0625 20.2105 11.3678 20.2105C9.66254 20.2105 6.94675 17.4947 6.94675 15.7895C6.94675 15.0947 6.69412 14.5263 6.31517 14.5263C5.99938 14.5263 5.68359 14.9684 5.68359 15.4737Z" fill="#4375AB"/>
</svg>
