<svg width="30" height="24" viewBox="0 0 30 24" fill="none" xmlns="http://www.w3.org/2000/svg">
<path d="M10.432 0.0641394C8.48008 0.525092 7.02893 2.2437 6.97772 4.17287C6.96633 4.66797 7.06877 4.86146 7.39314 4.96958C7.79719 5.10616 8.15571 4.85008 8.20692 4.38343C8.33781 3.31357 8.57113 2.77295 9.17435 2.16972C9.80034 1.54374 10.5401 1.23644 11.4165 1.23644C12.8506 1.23644 14.1367 2.26647 14.4725 3.68916C14.8651 5.35655 13.7953 7.06948 12.1051 7.46783C11.7921 7.54181 10.9499 7.55319 6.13548 7.55319C0.769087 7.55319 0.518693 7.55888 0.330898 7.66132C0.103267 7.78082 -0.0446931 8.08812 0.0122146 8.32714C0.0349776 8.4125 0.12603 8.55477 0.217082 8.64582L0.382115 8.81085L6.31759 8.79378L12.2531 8.77671L12.7083 8.62306C13.4481 8.36697 13.9603 8.04829 14.5066 7.50198C15.0529 6.95566 15.3773 6.4378 15.622 5.70369C15.7586 5.29396 15.7756 5.16307 15.7756 4.42327C15.7813 3.50136 15.696 3.09732 15.3261 2.37459C14.7911 1.3218 13.8294 0.519402 12.6514 0.13812C12.1962 -0.00414944 10.9214 -0.0496759 10.432 0.0641394Z" fill="#B9AA70"/>
<path d="M22.2865 1.35032C20.0101 1.82835 18.3086 3.54696 17.8363 5.85741C17.7851 6.09642 17.7452 6.48908 17.7452 6.72241C17.7452 7.09231 17.7623 7.16629 17.8932 7.31994C18.081 7.54188 18.3655 7.60448 18.6387 7.47359C18.8834 7.35408 18.9744 7.14921 19.0199 6.54599C19.1395 5.03794 20.0784 3.66077 21.4556 2.9665C22.1214 2.63074 22.6279 2.51693 23.436 2.52262C24.2896 2.52262 24.6595 2.61367 25.4278 2.98926C26.4009 3.4616 27.2943 4.49732 27.6187 5.52165C27.8293 6.18178 27.8975 6.83622 27.8179 7.42237C27.6813 8.48654 27.2829 9.28894 26.5431 10.0344C25.8318 10.7458 25.0351 11.1555 24.0734 11.3035C23.7888 11.349 20.1695 11.3661 12.0715 11.3661C0.735507 11.3661 0.468041 11.3718 0.297318 11.4742C-0.0782727 11.7018 -0.0782727 12.2823 0.297318 12.5099C0.468041 12.6124 0.741198 12.618 12.2138 12.618C23.8457 12.618 23.9652 12.618 24.5343 12.4985C26.5318 12.0945 28.1764 10.6433 28.8365 8.70279C29.4568 6.87606 29.0471 4.76478 27.7667 3.25104C26.4464 1.67469 24.2839 0.929204 22.2865 1.35032Z" fill="#B9AA70"/>
<path d="M0.262559 15.2927C-0.0731967 15.5544 -0.0731967 16.0723 0.262559 16.2942C0.410519 16.3967 0.814563 16.4024 11.627 16.4308L22.8378 16.4593L23.2077 16.6015C25.4214 17.4665 26.0304 20.164 24.38 21.8143C23.7597 22.4346 23.0143 22.7476 22.1549 22.7476C20.8404 22.7476 19.6396 21.9053 19.1901 20.6704C19.1218 20.4827 19.0364 20.0957 19.0023 19.8168C18.951 19.3559 18.9226 19.2876 18.7689 19.1453C18.5185 18.9177 18.16 18.9291 17.921 19.1681C17.7617 19.3274 17.7446 19.373 17.7446 19.7201C17.7503 21.7175 19.3551 23.6012 21.3526 23.9483C21.9785 24.0565 22.9687 23.9882 23.5207 23.8061C24.8922 23.3451 25.9109 22.3265 26.3718 20.955C26.5539 20.403 26.6222 19.4128 26.5141 18.7868C26.2751 17.421 25.3361 16.2146 24.0329 15.6C23.0769 15.1504 23.9817 15.1789 11.5246 15.1789C0.552788 15.1789 0.399137 15.1789 0.262559 15.2927Z" fill="#B9AA70"/>
</svg>
